<svg xmlns="http://www.w3.org/2000/svg" viewBox="0 0 320 320" fill="none" stroke="#3a3a3a" stroke-width="1.25">
  <title>Botanical illustration placeholder</title>
  <rect x="0.5" y="0.5" width="319" height="319" fill="#faf6ef" stroke="#d8cfbf"/>
  <g transform="translate(160 200)">
    <path d="M0 0 C -30 -20 -60 -10 -75 -50" />
    <path d="M0 0 C 30 -20 60 -10 75 -50" />
    <path d="M0 0 C 0 -40 -10 -100 0 -150" />
    <ellipse cx="-50" cy="-80" rx="22" ry="9" transform="rotate(-30 -50 -80)"/>
    <ellipse cx="50" cy="-80" rx="22" ry="9" transform="rotate(30 50 -80)"/>
    <ellipse cx="-30" cy="-130" rx="18" ry="7" transform="rotate(-20 -30 -130)"/>
    <ellipse cx="30" cy="-130" rx="18" ry="7" transform="rotate(20 30 -130)"/>
    <circle cx="0" cy="-160" r="9"/>
  </g>
  <text x="160" y="295" text-anchor="middle" font-family="Georgia, serif" font-size="11" fill="#7a6a52">illustration to be commissioned</text>
</svg>
