<svg xmlns="http://www.w3.org/2000/svg" viewBox="0 0 520 520" fill="none" stroke="#3a3a3a" stroke-width="1.25">
  <title>Hand-drawn map of Morocco — placeholder</title>
  <rect x="0.5" y="0.5" width="519" height="519" fill="#faf6ef" stroke="#d8cfbf"/>
  <path d="M70 110 C 130 70 200 80 270 95 C 340 110 410 150 445 220 C 470 290 440 360 380 400 C 320 440 230 445 170 410 C 110 380 70 320 60 250 C 55 200 50 150 70 110 Z"/>
  <circle cx="200" cy="160" r="3" fill="#3a3a3a"/><text x="208" y="160" font-family="Georgia, serif" font-size="11">Tetouan</text>
  <circle cx="220" cy="200" r="3" fill="#3a3a3a"/><text x="228" y="200" font-family="Georgia, serif" font-size="11">Fez</text>
  <circle cx="350" cy="190" r="3" fill="#3a3a3a"/><text x="358" y="190" font-family="Georgia, serif" font-size="11">Berkane</text>
  <circle cx="180" cy="290" r="3" fill="#3a3a3a"/><text x="188" y="290" font-family="Georgia, serif" font-size="11">Marrakech</text>
  <circle cx="110" cy="280" r="3" fill="#3a3a3a"/><text x="40" y="280" font-family="Georgia, serif" font-size="11">Essaouira</text>
  <text x="260" y="495" text-anchor="middle" font-family="Georgia, serif" font-size="11" fill="#7a6a52">hand-drawn map to be commissioned</text>
</svg>
